<?xml version="1.0" encoding="UTF-8" standalone="no"?>
<!-- Created with Inkscape (http://www.inkscape.org/) -->

<svg
   xmlns:dc="http://purl.org/dc/elements/1.1/"
   xmlns:cc="http://creativecommons.org/ns#"
   xmlns:rdf="http://www.w3.org/1999/02/22-rdf-syntax-ns#"
   xmlns:svg="http://www.w3.org/2000/svg"
   xmlns="http://www.w3.org/2000/svg"
   xmlns:sodipodi="http://sodipodi.sourceforge.net/DTD/sodipodi-0.dtd"
   xmlns:inkscape="http://www.inkscape.org/namespaces/inkscape"
   width="210mm"
   height="297mm"
   viewBox="0 0 210 297"
   version="1.1"
   id="svg8"
   sodipodi:docname="donut med strössel oäten.svg"
   inkscape:version="0.92.4 (5da689c313, 2019-01-14)">
  <defs
     id="defs2" />
  <sodipodi:namedview
     id="base"
     pagecolor="#ffffff"
     bordercolor="#666666"
     borderopacity="1.0"
     inkscape:pageopacity="0.0"
     inkscape:pageshadow="2"
     inkscape:zoom="0.13830914"
     inkscape:cx="-6805.5501"
     inkscape:cy="-16356.704"
     inkscape:document-units="mm"
     inkscape:current-layer="layer1"
     showgrid="false"
     showborder="false"
     inkscape:snap-global="false"
     inkscape:window-width="976"
     inkscape:window-height="1001"
     inkscape:window-x="934"
     inkscape:window-y="0"
     inkscape:window-maximized="0" />
  <metadata
     id="metadata5">
    <rdf:RDF>
      <cc:Work
         rdf:about="">
        <dc:format>image/svg+xml</dc:format>
        <dc:type
           rdf:resource="http://purl.org/dc/dcmitype/StillImage" />
        <dc:title></dc:title>
      </cc:Work>
    </rdf:RDF>
  </metadata>
  <g
     inkscape:label="Layer 1"
     inkscape:groupmode="layer"
     id="layer1">
    <path
       style="opacity:1;fill:#ffb380;fill-opacity:0.99607843;stroke:#f3f3f3;stroke-width:0;stroke-linecap:round;stroke-linejoin:miter;stroke-miterlimit:4;stroke-dasharray:none;stroke-dashoffset:0;stroke-opacity:1"
       d="M -7046.2793 17050.965 A 940.61498 940.61498 0 0 0 -7980.2812 17996.979 A 940.61498 940.61498 0 0 0 -7035.4355 18932.162 L -7030.7324 18932.129 A 940.61498 940.61498 0 0 0 -6099.0996 17983.783 A 940.61498 940.61498 0 0 0 -7046.2793 17050.965 z M -7041.9922 17662.35 A 329.21501 329.21504 0 0 1 -6710.4785 17988.836 A 329.21501 329.21504 0 0 1 -7036.5508 18320.758 L -7038.1953 18320.77 A 329.21501 329.21504 0 0 1 -7368.8906 17993.455 A 329.21501 329.21504 0 0 1 -7041.9922 17662.35 z "
       transform="scale(0.26458333)"
       id="path817" />
    <path
       sodipodi:nodetypes="ccccsssccccssscssscccc"
       inkscape:connector-curvature="0"
       id="path859"
       d="m -1863.8816,4501.4776 c -1.0523,0.01 -2.1048,0.018 -3.1574,0.038 -91.7473,0.6011 -181.2639,54.2401 -224.1134,135.545 -22.3744,41.1096 -32.8996,88.4025 -30.9211,135.1004 0.047,24.7401 8.1532,53.4758 28.5721,53.4758 51.6583,0 21.1762,-91.3604 62.6634,-91.3604 37.0149,0 28.4756,80.9947 62.5994,80.9947 32.794,0 28.4182,-22.2623 28.3798,-43.1101 -1.9345,-28.5888 12.9759,-68.9509 44.3141,-81.9951 10.3687,-4.7033 21.7489,-7.0681 32.906,-7.0133 43.275,-0.6636 81.4943,41.6306 75.8362,84.6949 -0.034,0.3612 -0.071,0.7219 -0.1112,1.0823 -0.04,0.3603 -0.083,0.7202 -0.1294,1.0797 -0.046,0.3594 -0.095,0.7185 -0.1462,1.0771 -0.052,0.3586 -0.1056,0.7167 -0.1621,1.0744 -1.3523,31.1971 2.9421,71.3493 26.4235,71.3493 55.874,0 21.3279,-136.5002 63.2781,-135.5721 41.9833,0.929 3.6599,137.8837 63.9731,137.8837 17.4657,0 28.9342,-40.409 28.5086,-73.6609 3.3328,-73.3046 -25.5465,-147.7851 -79.0877,-198.2938 -47.709,-45.9145 -113.328,-72.7546 -179.6258,-72.3895 z"
       style="opacity:1;fill:#000000;fill-opacity:0.99607843;stroke:#110e0e;stroke-width:6.61458333;stroke-linecap:round;stroke-linejoin:miter;stroke-miterlimit:4;stroke-dasharray:none;stroke-dashoffset:0;stroke-opacity:1" />
    <path
       style="color:#000000;font-style:normal;font-variant:normal;font-weight:normal;font-stretch:normal;font-size:medium;line-height:normal;font-family:sans-serif;font-variant-ligatures:normal;font-variant-position:normal;font-variant-caps:normal;font-variant-numeric:normal;font-variant-alternates:normal;font-feature-settings:normal;text-indent:0;text-align:start;text-decoration:none;text-decoration-line:none;text-decoration-style:solid;text-decoration-color:#000000;letter-spacing:normal;word-spacing:normal;text-transform:none;writing-mode:lr-tb;direction:ltr;text-orientation:mixed;dominant-baseline:auto;baseline-shift:baseline;text-anchor:start;white-space:normal;shape-padding:0;clip-rule:nonzero;display:inline;overflow:visible;visibility:visible;opacity:1;isolation:auto;mix-blend-mode:normal;color-interpolation:sRGB;color-interpolation-filters:linearRGB;solid-color:#000000;solid-opacity:1;vector-effect:none;fill:#6c5353;fill-opacity:1;fill-rule:nonzero;stroke:#3c2e2e;stroke-width:13.22916603;stroke-linecap:round;stroke-linejoin:round;stroke-miterlimit:4;stroke-dasharray:none;stroke-dashoffset:0;stroke-opacity:1;color-rendering:auto;image-rendering:auto;shape-rendering:auto;text-rendering:auto;enable-background:accumulate"
       d="m -1864.4743,4494.8631 c -1.0173,0.01 -2.0635,0.017 -3.1367,0.037 -0.01,0 -0.021,0 -0.031,0 -94.2754,0.6297 -185.8124,55.4669 -229.8748,139.0467 -22.9317,42.1561 -33.6924,90.5237 -31.6958,138.33 0.035,13.058 2.0736,27.0629 7.2172,38.5918 5.1573,11.5597 14.6524,21.3808 27.9647,21.3808 14.8643,0 25.5362,-7.5116 31.4472,-17.5271 5.9111,-10.0155 8.1808,-22.084 10.2128,-33.6211 2.032,-11.5374 3.8252,-22.6343 7.0254,-29.8789 1.6001,-3.6221 3.4488,-6.1767 5.5335,-7.7851 2.0847,-1.6084 4.473,-2.5493 8.445,-2.5493 6.8414,0 10.808,3.1195 15.0528,9.647 4.2449,6.5276 7.6891,16.2391 11.0567,26.3298 3.3675,10.0906 6.6583,20.5422 11.8535,29.1621 5.1952,8.6196 13.4892,15.8557 24.6367,15.8557 8.947,0 16.01,-1.4891 21.5682,-4.6818 5.5584,-3.1925 9.2279,-8.173 11.143,-13.3882 3.83,-10.431 2.3014,-21.7009 2.2831,-31.6664 a 6.615245,6.615245 0 0 0 -0.016,-0.4337 c -0.8758,-12.9429 2.151,-29.2756 9.0351,-43.498 6.8841,-14.2224 17.4448,-26.2083 31.2229,-31.9431 a 6.615245,6.615245 0 0 0 0.1891,-0.084 c 9.4702,-4.2958 19.9404,-6.472 30.1408,-6.4217 a 6.615245,6.615245 0 0 0 0.1349,0 c 38.907,-0.5967 74.2596,38.5251 69.1756,77.2205 a 6.615245,6.615245 0 0 0 -0.027,0.2423 c -0.031,0.3247 -0.064,0.6474 -0.1002,0.9689 -0.036,0.3239 -0.074,0.6445 -0.1152,0.9628 a 6.615245,6.615245 0 0 0 0,0.01 c -0.041,0.3231 -0.088,0.6509 -0.1344,0.9824 -0.048,0.3331 -0.096,0.6594 -0.1468,0.9766 a 6.615245,6.615245 0 0 0 -0.074,0.7464 c -0.6946,16.0237 -0.037,34.2937 4.129,49.4159 2.0831,7.5613 5.0251,14.419 9.6774,19.789 4.6522,5.3697 11.4692,9.0451 19.2247,9.0451 8.3308,0 15.6671,-2.7318 21.2695,-7.3925 5.6024,-4.6604 9.4977,-10.9691 12.4044,-18.0139 5.8134,-14.0896 7.9564,-31.5335 9.7638,-48.6481 1.8073,-17.1146 3.2437,-33.9463 6.4843,-45.5626 1.6204,-5.8081 3.7178,-10.197 5.8689,-12.6622 2.151,-2.4653 3.8786,-3.3715 7.3401,-3.2951 3.44,0.076 5.1937,1.0835 7.3241,3.7285 2.1305,2.6451 4.1339,7.23 5.6328,13.2054 2.9977,11.9507 4.1001,29.0356 5.7169,46.359 1.6167,17.3233 3.6932,34.9429 9.8361,49.1836 6.1429,14.2407 18.0297,25.4082 35.6113,25.4082 6.917,0 12.7298,-4.0362 17.002,-9.2578 4.2721,-5.2215 7.5362,-11.9197 10.203,-19.5291 5.3225,-15.1871 8.1268,-34.0731 7.9169,-51.4636 3.335,-75.1284 -26.1792,-151.2263 -81.1201,-203.083 l -0.024,-0.021 c -48.9624,-47.1093 -116.1281,-74.5916 -184.2244,-74.2167 a 6.615245,6.615245 0 0 0 -0.027,0 z"
       id="path876"
       inkscape:connector-curvature="0" />
    <path
       style="opacity:0.51000001;fill:#ffffff;fill-opacity:0.99607843;stroke:#f3f3f3;stroke-width:0;stroke-linecap:round;stroke-linejoin:miter;stroke-miterlimit:4;stroke-dasharray:none;stroke-dashoffset:0;stroke-opacity:1"
       d="m -1698.6699,4721.0996 c -7.4123,4.903 -6.8011,15.3116 -9.0367,22.8916 -5.2788,31.3796 -2.9591,65.5346 -19.559,93.919 -5.7933,8.7396 -14.746,15.7381 -25.1641,17.8027 -34.1335,40.4959 -91.6454,60.7485 -143.3051,47.1331 -51.4716,-12.4274 -94.934,-53.845 -109.017,-104.9961 -7.492,-16.4681 -8.9448,-36.5959 -22.4962,-49.6585 -6.6013,-3.3702 -12.8215,3.1907 -13.4493,9.4981 -3.8857,12.8026 -5.4518,26.3594 -7.7864,39.3739 11.7122,60.9219 54.8823,115.689 113.1575,138.46 60.8872,25.2205 135.0692,17.2005 187.1875,-23.7109 31.9886,-24.2797 55.5864,-58.9176 67.375,-97.1934 -7.9313,-29.7031 -3.5049,-61.8145 -14.2695,-90.6562 -0.7391,-1.223 -1.9245,-3.3953 -3.6367,-2.8633 z"
       id="path879"
       inkscape:connector-curvature="0" />
    <path
       style="opacity:0.51000001;fill:#ffffff;fill-opacity:0.99607843;stroke:#f3f3f3;stroke-width:0;stroke-linecap:round;stroke-linejoin:miter;stroke-miterlimit:4;stroke-dasharray:none;stroke-dashoffset:0;stroke-opacity:1"
       d="m -1865.8242,4570.377 c -87.6571,0.094 -171.1805,69.7583 -184.409,157.1582 0.1466,1.6243 -2.5605,8.8347 0.282,5.5234 12.1415,-10.9697 32.1389,-7.708 42.3848,4.2461 9.1963,-55.8246 52.3477,-105.9158 108.1641,-118.7129 41.58,-11.2036 88.1808,-2.655 122.2531,23.9704 25.353,18.9151 44.9395,45.6975 54.4656,75.9241 3.7787,-10.7328 14.176,-19.818 26.0742,-18.3496 6.1474,0.472 11.9901,3.4903 16.1328,8.0235 -18.6294,-64.4664 -72.8114,-118.0636 -138.7461,-132.5547 -15.2981,-3.6037 -30.9878,-5.3464 -46.6015,-5.2285 z"
       id="path937"
       inkscape:connector-curvature="0" />
    <rect
       style="opacity:1;fill:#00ffff;fill-opacity:0.99607843;stroke:none;stroke-width:20.24015236;stroke-linecap:round;stroke-linejoin:round;stroke-miterlimit:4;stroke-dasharray:none;stroke-dashoffset:0;stroke-opacity:1"
       id="rect3245"
       width="52.754707"
       height="9.468792"
       x="-4794.3765"
       y="1523.755"
       ry="4.734396"
       transform="rotate(-50.310996)" />
    <rect
       ry="5.4107385"
       y="-4181.0474"
       x="-2999.4875"
       height="10.821477"
       width="55.460075"
       id="rect3247"
       style="opacity:1;fill:#00ffff;fill-opacity:0.99607843;stroke:none;stroke-width:22.18550873;stroke-linecap:round;stroke-linejoin:round;stroke-miterlimit:4;stroke-dasharray:none;stroke-dashoffset:0;stroke-opacity:1"
       transform="rotate(-120.71936)" />
    <rect
       style="opacity:1;fill:#00ffff;fill-opacity:0.99607843;stroke:none;stroke-width:24.57588768;stroke-linecap:round;stroke-linejoin:round;stroke-miterlimit:4;stroke-dasharray:none;stroke-dashoffset:0;stroke-opacity:1"
       id="rect3249"
       width="49.820782"
       height="14.782097"
       x="-4586.6025"
       y="3495.895"
       ry="7.3910484"
       transform="matrix(0.90513311,-0.42512829,0.61736659,0.7866756,0,0)"
       inkscape:transform-center-x="33.816978"
       inkscape:transform-center-y="7.325182" />
    <rect
       ry="6.0870805"
       y="4813.314"
       x="1072.9238"
       height="12.174161"
       width="64.928871"
       id="rect3251"
       style="opacity:1;fill:#00ffff;fill-opacity:0.99607843;stroke:none;stroke-width:25.46093559;stroke-linecap:round;stroke-linejoin:round;stroke-miterlimit:4;stroke-dasharray:none;stroke-dashoffset:0;stroke-opacity:1"
       transform="rotate(33.048126)" />
    <rect
       ry="6.0870805"
       y="3157.0747"
       x="-3918.4131"
       height="12.174161"
       width="41.933228"
       id="rect3255"
       style="opacity:1;fill:#00ffff;fill-opacity:0.99607843;stroke:none;stroke-width:20.46136475;stroke-linecap:round;stroke-linejoin:round;stroke-miterlimit:4;stroke-dasharray:none;stroke-dashoffset:0;stroke-opacity:1"
       transform="rotate(-30.405059)" />
    <rect
       style="opacity:1;fill:#00ffff;fill-opacity:0.99607843;stroke:none;stroke-width:21.07552147;stroke-linecap:round;stroke-linejoin:round;stroke-miterlimit:4;stroke-dasharray:none;stroke-dashoffset:0;stroke-opacity:1"
       id="rect3257"
       width="50.049335"
       height="10.821477"
       x="-1032.5659"
       y="4827.916"
       ry="5.4107385"
       transform="rotate(10.788249)"
       inkscape:transform-center-x="-9.4687937"
       inkscape:transform-center-y="4.0580544" />
    <rect
       ry="6.0870805"
       y="4794.7017"
       x="1414.7445"
       height="12.174161"
       width="51.40202"
       id="rect3263"
       style="opacity:1;fill:#00ffff;fill-opacity:0.99607843;stroke:none;stroke-width:22.65403366;stroke-linecap:round;stroke-linejoin:round;stroke-miterlimit:4;stroke-dasharray:none;stroke-dashoffset:0;stroke-opacity:1"
       transform="rotate(39.889584)" />
    <rect
       inkscape:transform-center-y="22.821236"
       inkscape:transform-center-x="-6.1056856"
       transform="rotate(27.77758)"
       ry="6.0870805"
       y="4946.7861"
       x="723.66736"
       height="12.174161"
       width="59.518131"
       id="rect3275"
       style="opacity:1;fill:#ff00ff;fill-opacity:0.99607843;stroke:none;stroke-width:24.37698936;stroke-linecap:round;stroke-linejoin:round;stroke-miterlimit:4;stroke-dasharray:none;stroke-dashoffset:0;stroke-opacity:1" />
    <rect
       style="opacity:1;fill:#ff00ff;fill-opacity:0.99607843;stroke:none;stroke-width:24.37698936;stroke-linecap:round;stroke-linejoin:round;stroke-miterlimit:4;stroke-dasharray:none;stroke-dashoffset:0;stroke-opacity:1"
       id="rect3277"
       width="59.518131"
       height="12.174161"
       x="1018.9842"
       y="4964.374"
       ry="6.0870805"
       transform="rotate(35.341014)"
       inkscape:transform-center-x="-3.0489009"
       inkscape:transform-center-y="23.426091" />
    <rect
       inkscape:transform-center-y="21.988091"
       inkscape:transform-center-x="-8.6369194"
       transform="rotate(21.311849)"
       ry="6.0870805"
       y="4969.7031"
       x="-205.30643"
       height="12.174161"
       width="59.518131"
       id="rect3279"
       style="opacity:1;fill:#ff00ff;fill-opacity:0.99607843;stroke:none;stroke-width:24.37698936;stroke-linecap:round;stroke-linejoin:round;stroke-miterlimit:4;stroke-dasharray:none;stroke-dashoffset:0;stroke-opacity:1" />
    <rect
       style="opacity:1;fill:#ff00ff;fill-opacity:0.99607843;stroke:none;stroke-width:24.37698936;stroke-linecap:round;stroke-linejoin:round;stroke-miterlimit:4;stroke-dasharray:none;stroke-dashoffset:0;stroke-opacity:1"
       id="rect3281"
       width="59.518131"
       height="12.174161"
       x="547.89679"
       y="4994.957"
       ry="6.0870805"
       transform="rotate(29.144317)"
       inkscape:transform-center-x="-5.5598896"
       inkscape:transform-center-y="22.959942" />
    <rect
       inkscape:transform-center-y="5.4107393"
       inkscape:transform-center-x="-22.995642"
       transform="rotate(-34.002884)"
       ry="6.0870805"
       y="2776.3398"
       x="-4081.1997"
       height="12.174161"
       width="59.518131"
       id="rect3283"
       style="opacity:1;fill:#ff00ff;fill-opacity:0.99607843;stroke:none;stroke-width:24.37698936;stroke-linecap:round;stroke-linejoin:round;stroke-miterlimit:4;stroke-dasharray:none;stroke-dashoffset:0;stroke-opacity:1" />
    <rect
       style="opacity:1;fill:#ff00ff;fill-opacity:0.99607843;stroke:none;stroke-width:24.37698936;stroke-linecap:round;stroke-linejoin:round;stroke-miterlimit:4;stroke-dasharray:none;stroke-dashoffset:0;stroke-opacity:1"
       id="rect3285"
       width="59.518131"
       height="12.174161"
       x="-4112.5952"
       y="2841.6946"
       ry="6.0870805"
       transform="rotate(-34.002884)"
       inkscape:transform-center-x="-22.995642"
       inkscape:transform-center-y="5.4107393" />
    <rect
       style="opacity:1;fill:#ffffff;fill-opacity:0.99607843;stroke:none;stroke-width:24.37698936;stroke-linecap:round;stroke-linejoin:round;stroke-miterlimit:4;stroke-dasharray:none;stroke-dashoffset:0;stroke-opacity:1"
       id="rect3287"
       width="59.518131"
       height="12.174161"
       x="-244.44838"
       y="5185.1802"
       ry="6.0870805"
       transform="rotate(21.311849)"
       inkscape:transform-center-x="-8.6369194"
       inkscape:transform-center-y="21.988091" />
    <rect
       inkscape:transform-center-y="21.988091"
       inkscape:transform-center-x="-8.6369194"
       transform="rotate(21.311849)"
       ry="6.0870805"
       y="5112.7715"
       x="-195.69391"
       height="12.174161"
       width="59.518131"
       id="rect3289"
       style="opacity:1;fill:#ffffff;fill-opacity:0.99607843;stroke:none;stroke-width:24.37698936;stroke-linecap:round;stroke-linejoin:round;stroke-miterlimit:4;stroke-dasharray:none;stroke-dashoffset:0;stroke-opacity:1" />
    <rect
       style="opacity:1;fill:#ffffff;fill-opacity:0.99607843;stroke:none;stroke-width:24.37698936;stroke-linecap:round;stroke-linejoin:round;stroke-miterlimit:4;stroke-dasharray:none;stroke-dashoffset:0;stroke-opacity:1"
       id="rect3291"
       width="59.518131"
       height="12.174161"
       x="-140.21774"
       y="4981.2715"
       ry="6.0870805"
       transform="rotate(21.311849)"
       inkscape:transform-center-x="-8.6369194"
       inkscape:transform-center-y="21.988091" />
    <rect
       inkscape:transform-center-y="21.988091"
       inkscape:transform-center-x="-8.6369194"
       transform="rotate(21.311849)"
       ry="6.0870805"
       y="4882.9272"
       x="32.916592"
       height="12.174161"
       width="59.518131"
       id="rect3293"
       style="opacity:1;fill:#ffffff;fill-opacity:0.99607843;stroke:none;stroke-width:24.37698936;stroke-linecap:round;stroke-linejoin:round;stroke-miterlimit:4;stroke-dasharray:none;stroke-dashoffset:0;stroke-opacity:1" />
    <rect
       style="opacity:1;fill:#ffffff;fill-opacity:0.99607843;stroke:none;stroke-width:24.37698936;stroke-linecap:round;stroke-linejoin:round;stroke-miterlimit:4;stroke-dasharray:none;stroke-dashoffset:0;stroke-opacity:1"
       id="rect3295"
       width="59.518131"
       height="12.174161"
       x="-72.147743"
       y="4955.7427"
       ry="6.0870805"
       transform="rotate(21.311849)"
       inkscape:transform-center-x="-8.6369194"
       inkscape:transform-center-y="21.988091" />
  </g>
</svg>
