<?xml version="1.0" encoding="UTF-8" standalone="no"?>
<!-- Created with Inkscape (http://www.inkscape.org/) -->

<svg
   xmlns:dc="http://purl.org/dc/elements/1.1/"
   xmlns:cc="http://creativecommons.org/ns#"
   xmlns:rdf="http://www.w3.org/1999/02/22-rdf-syntax-ns#"
   xmlns:svg="http://www.w3.org/2000/svg"
   xmlns="http://www.w3.org/2000/svg"
   xmlns:xlink="http://www.w3.org/1999/xlink"
   xmlns:sodipodi="http://sodipodi.sourceforge.net/DTD/sodipodi-0.dtd"
   xmlns:inkscape="http://www.inkscape.org/namespaces/inkscape"
   width="210mm"
   height="297mm"
   viewBox="0 0 0.0021 0.0029699999"
   version="1.1"
   id="svg8"
   inkscape:version="0.92.4 (5da689c313, 2019-01-14)"
   sodipodi:docname="Logotyp.svg">
  <defs
     id="defs2">
    <inkscape:perspective
       sodipodi:type="inkscape:persp3d"
       inkscape:vp_x="0 : 0.0014849999 : 1"
       inkscape:vp_y="0 : 1000 : 0"
       inkscape:vp_z="0.0021 : 0.0014849999 : 1"
       inkscape:persp3d-origin="0.00105 : 0.00098999997 : 1"
       id="perspective4945" />
  </defs>
  <sodipodi:namedview
     id="base"
     pagecolor="#ffffff"
     bordercolor="#666666"
     borderopacity="1.0"
     inkscape:pageopacity="0.0"
     inkscape:pageshadow="2"
     inkscape:zoom="0.70710678"
     inkscape:cx="-49574.286"
     inkscape:cy="23727.207"
     inkscape:document-units="px"
     inkscape:current-layer="layer1"
     showgrid="false"
     showborder="false"
     scale-x="1e-05"
     inkscape:object-nodes="true"
     inkscape:window-width="958"
     inkscape:window-height="991"
     inkscape:window-x="952"
     inkscape:window-y="0"
     inkscape:window-maximized="0" />
  <metadata
     id="metadata5">
    <rdf:RDF>
      <cc:Work
         rdf:about="">
        <dc:format>image/svg+xml</dc:format>
        <dc:type
           rdf:resource="http://purl.org/dc/dcmitype/StillImage" />
        <dc:title></dc:title>
      </cc:Work>
    </rdf:RDF>
  </metadata>
  <g
     inkscape:label="Layer 1"
     inkscape:groupmode="layer"
     id="layer1">
    <rect
       style="opacity:0.53600003;fill:none;stroke-width:0.26458332"
       id="rect815"
       width="0.75595242"
       height="3.4017856"
       x="-195.4137"
       y="22.211309" />
    <g
       id="g4548"
       transform="matrix(1.0490242,0,0,1.0422372,-0.01899162,-0.00483726)">
      <g
         id="g4564"
         transform="translate(-0.00302549)" />
      <g
         id="g4574"
         transform="matrix(0.46089382,-0.60123131,0.6091329,0.79306816,-0.0152455,0.00770088)"
         style="fill:#ffff00">
        <rect
           y="0.0079119904"
           x="0.0032725292"
           height="0.003366611"
           width="0.00061661046"
           id="rect4566"
           style="opacity:1;fill:#ffff00;stroke:#000000;stroke-width:0.00013339;stroke-linecap:round;stroke-linejoin:round;stroke-miterlimit:4;stroke-dasharray:none" />
        <rect
           transform="matrix(0.8660254,-0.5,0,1,0,0)"
           style="opacity:1;fill:#ffff00;stroke:#000000;stroke-width:0.00014334;stroke-linecap:round;stroke-linejoin:round;stroke-miterlimit:4;stroke-dasharray:none"
           id="rect4568"
           width="0.00071200042"
           height="0.003366611"
           x="0.0044907918"
           y="0.010157386" />
        <rect
           y="0.0060225949"
           x="-0.0037787913"
           height="0.003366611"
           width="0.00071200042"
           id="rect4570"
           style="opacity:1;fill:#ffff00;stroke:#000000;stroke-width:0.00014334;stroke-linecap:round;stroke-linejoin:round;stroke-miterlimit:4;stroke-dasharray:none"
           transform="matrix(-0.8660254,-0.5,0,1,0,0)" />
        <path
           sodipodi:nodetypes="ccc"
           inkscape:connector-curvature="0"
           id="path4572"
           d="m 0.00265592,0.00755599 9.4759e-4,-0.00160262 9.0224e-4,0.00160262"
           style="fill:#ffff00;stroke:#000000;stroke-width:0.00015;stroke-linecap:butt;stroke-linejoin:miter;stroke-miterlimit:4;stroke-dasharray:none;stroke-opacity:1" />
      </g>
      <path
         style="opacity:1;fill:none;stroke:#000000;stroke-width:0.0003;stroke-linecap:round;stroke-linejoin:round;stroke-miterlimit:4;stroke-dasharray:none"
         d="m -0.00822655,0.01655282 c -0.00264169,1.1221e-4 -0.00477874,-0.0027639 -0.00391787,-0.0052603 6.7272e-4,-0.00255548 0.00405003,-0.0037534 0.00618213,-0.00219141 0.00224413,0.0013968 0.00239154,0.00497694 2.6983e-4,0.00655349 -7.091e-4,5.7267e-4 -0.00161469,8.9457e-4 -0.00252602,8.9822e-4 z"
         id="path4607"
         inkscape:connector-curvature="0" />
      <path
         style="opacity:1;fill:none;stroke:#ffff00;stroke-width:0.0003;stroke-linecap:round;stroke-linejoin:round;stroke-miterlimit:4;stroke-dasharray:none;stroke-opacity:1"
         id="path4610"
         sodipodi:type="arc"
         sodipodi:cx="-0.0082601327"
         sodipodi:cy="0.012479879"
         sodipodi:rx="0.0046504894"
         sodipodi:ry="0.0046504894"
         sodipodi:start="1.5662812"
         sodipodi:end="1.564302"
         sodipodi:open="true"
         d="m -0.00823914,0.01713032 a 0.00465049,0.00465049 0 0 1 -0.00467142,-0.0046271 0.00465049,0.00465049 0 0 1 0.00462483,-0.00467372 0.00465049,0.00465049 0 0 1 0.004676,0.00462252 0.00465049,0.00465049 0 0 1 -0.0046202,0.0046783" />
      <path
         style="opacity:1;fill:none;stroke:#000000;stroke-width:0.00031612;stroke-linecap:round;stroke-linejoin:round;stroke-miterlimit:4;stroke-dasharray:none"
         id="path4614"
         sodipodi:type="arc"
         sodipodi:cx="-0.0082601327"
         sodipodi:cy="0.012479879"
         sodipodi:rx="0.0052691526"
         sodipodi:ry="0.0052666762"
         sodipodi:start="1.5662812"
         sodipodi:end="1.564302"
         sodipodi:open="true"
         d="m -0.00823634,0.0177465 a 0.00526915,0.00526668 0 0 1 -0.00529288,-0.0052402 0.00526915,0.00526668 0 0 1 0.00524008,-0.00529298 0.00526915,0.00526668 0 0 1 0.00529807,0.005235 0.00526915,0.00526668 0 0 1 -0.00523484,0.0052982" />
      <rect
         style="opacity:0.69100001;fill:none;stroke:none;stroke-width:0.0001;stroke-linecap:round;stroke-linejoin:round;stroke-miterlimit:4;stroke-dasharray:none;stroke-opacity:1"
         id="rect4643"
         width="0.0019029591"
         height="0.0091299275"
         x="-0.0092116138"
         y="0.0079149157" />
      <rect
         style="opacity:0.69100001;fill:none;stroke:none;stroke-width:0.00015;stroke-linecap:round;stroke-linejoin:round;stroke-miterlimit:4;stroke-dasharray:none;stroke-opacity:1"
         id="rect4647"
         width="0.0036134839"
         height="0.010220387"
         x="0.0016249986"
         y="0.0093203234" />
      <path
         style="opacity:0.40100002;fill:none;stroke:none;stroke-width:0.00015;stroke-linecap:round;stroke-linejoin:round;stroke-miterlimit:4;stroke-dasharray:none;stroke-opacity:1"
         id="path4655"
         sodipodi:type="arc"
         sodipodi:cx="-0.0082702162"
         sodipodi:cy="0.012832921"
         sodipodi:rx="0.0062441668"
         sodipodi:ry="0.0061534522"
         sodipodi:start="1.5662812"
         sodipodi:end="1.564302"
         sodipodi:open="true"
         d="M -0.00824202,0.01898631 A 0.00624417,0.00615345 0 0 1 -0.0145143,0.01286375 0.00624417,0.00615345 0 0 1 -0.00830459,0.00667956 0.00624417,0.00615345 0 0 1 -0.00202616,0.012796 0.00624417,0.00615345 0 0 1 -0.00822966,0.01898624" />
      <path
         style="opacity:0.40100002;fill:none;stroke:none;stroke-width:0.00015;stroke-linecap:round;stroke-linejoin:round;stroke-miterlimit:4;stroke-dasharray:none;stroke-opacity:1"
         id="path4657"
         sodipodi:type="arc"
         sodipodi:cx="-0.016646072"
         sodipodi:cy="0.02280619"
         sodipodi:rx="0.0010129762"
         sodipodi:ry="0.00048380953"
         sodipodi:start="1.5662812"
         sodipodi:end="1.564302"
         sodipodi:open="true"
         d="m -0.0166415,0.02328999 a 0.00101298,4.8380953e-4 0 0 1 -0.0010175,-4.8138e-4 0.00101298,4.8380953e-4 0 0 1 0.0010074,-4.8622e-4 0.00101298,4.8380953e-4 0 0 1 0.0010185,4.809e-4 0.00101298,4.8380953e-4 0 0 1 -0.0010064,4.867e-4" />
      <path
         style="opacity:0.40100002;fill:none;stroke:none;stroke-width:0.00015;stroke-linecap:round;stroke-linejoin:round;stroke-miterlimit:4;stroke-dasharray:none;stroke-opacity:1"
         id="path4661"
         sodipodi:type="arc"
         sodipodi:cx="-0.014363094"
         sodipodi:cy="0.018633332"
         sodipodi:rx="0.00015119047"
         sodipodi:ry="0.00090714288"
         sodipodi:start="1.5662812"
         sodipodi:end="1.564302"
         sodipodi:open="true"
         d="m -0.01436241,0.01954047 a 1.5119047e-4,9.0714288e-4 0 0 1 -1.5187e-4,-9.0259e-4 1.5119047e-4,9.0714288e-4 0 0 1 1.5035e-4,-9.1168e-4 1.5119047e-4,9.0714288e-4 0 0 1 1.5202e-4,9.0169e-4 1.5119047e-4,9.0714288e-4 0 0 1 -1.502e-4,9.1257e-4" />
      <path
         style="opacity:0.556;fill:#ccff00;stroke:none;stroke-width:0.00013343;stroke-linecap:round;stroke-linejoin:round;stroke-miterlimit:4;stroke-dasharray:none;stroke-opacity:1"
         id="path4663"
         sodipodi:type="arc"
         sodipodi:cx="-0.0082504181"
         sodipodi:cy="0.01247296"
         sodipodi:rx="0.005427205"
         sodipodi:ry="0.00542473"
         sodipodi:start="1.5662812"
         sodipodi:end="1.564302"
         sodipodi:open="true"
         d="m -0.00822591,0.01789763 a 0.00542721,0.00542473 0 0 1 -0.00545165,-0.0053975 0.00542721,0.00542473 0 0 1 0.00539727,-0.00545183 0.00542721,0.00542473 0 0 1 0.00545698,0.0053921 0.00542721,0.00542473 0 0 1 -0.00539186,0.0054572" />
    </g>
    <flowRoot
       xml:space="preserve"
       id="flowRoot4665"
       style="fill:black;fill-opacity:1;stroke:none;font-family:sans-serif;font-style:normal;font-weight:normal;font-size:40px;line-height:1.25;letter-spacing:0px;word-spacing:0px"><flowRegion
         id="flowRegion4667"><rect
           id="rect4669"
           width="6346.2832"
           height="2015.2543"
           x="-12975.409"
           y="5966.2012" /></flowRegion><flowPara
         id="flowPara4671"></flowPara></flowRoot>    <flowRoot
       xml:space="preserve"
       id="flowRoot4681"
       style="fill:black;fill-opacity:1;stroke:none;font-family:sans-serif;font-style:normal;font-weight:normal;font-size:40px;line-height:1.25;letter-spacing:0px;word-spacing:0px"><flowRegion
         id="flowRegion4683"><rect
           id="rect4685"
           width="14283.557"
           height="8732.7686"
           x="-20223.254"
           y="-609.89197" /></flowRegion><flowPara
         id="flowPara4687"></flowPara></flowRoot>    <text
       xml:space="preserve"
       style="font-style:normal;font-weight:normal;font-size:0.00113243px;line-height:1.25;font-family:sans-serif;letter-spacing:0px;word-spacing:0px;fill:#800000;fill-opacity:1;stroke:none;stroke-width:0.00000142;"
       id="text4707"
       transform="matrix(-0.70107489,1.0582935,-0.9652798,-0.76862998,-0.02141865,0.02778183)"><textPath
         xlink:href="#path4663"
         id="textPath4709"><tspan
   style="stroke-width:0.00000142;fill:#800000;"
   id="tspan4705"><tspan
     style="stroke-width:0.00000142;fill:#800000;"
     id="tspan4703"
     y="0.0022969116"
     x="-0.032188758">Eken Pennor&amp;co</tspan></tspan></textPath></text>
    <flowRoot
       xml:space="preserve"
       id="flowRoot4713"
       style="fill:black;fill-opacity:1;stroke:none;font-family:sans-serif;font-style:normal;font-weight:normal;font-size:40px;line-height:1.25;letter-spacing:0px;word-spacing:0px"><flowRegion
         id="flowRegion4715"><rect
           id="rect4717"
           width="25"
           height="362.5"
           x="-10287.5"
           y="-939.98035" /></flowRegion><flowPara
         id="flowPara4719"></flowPara></flowRoot>    <rect
       style="opacity:0.556;fill:none;stroke:none;stroke-width:0.000001;stroke-linecap:round;stroke-linejoin:round;stroke-miterlimit:4;stroke-dasharray:none;stroke-opacity:1"
       id="rect4771"
       width="0.0036049478"
       height="0.01508125"
       x="-0.01213776"
       y="0.0011509894" />
    <rect
       style="opacity:1;fill:#800000;stroke:#000000;stroke-width:0.0004;stroke-linecap:round;stroke-linejoin:miter;stroke-miterlimit:4;stroke-dasharray:none;stroke-opacity:1"
       id="rect4816"
       width="0.046566665"
       height="0.0015213542"
       x="-0.080168746"
       y="0.0054835416" />
    <rect
       style="opacity:1;fill:none;stroke:#000000;stroke-width:0;stroke-linecap:round;stroke-linejoin:miter;stroke-miterlimit:4;stroke-dasharray:none;stroke-opacity:0.86602873"
       id="rect4818"
       width="0.0068130209"
       height="0.03095625"
       x="-0.14419791"
       y="0.0024408333" />
    <rect
       style="opacity:1;fill:#000000;stroke:#000000;stroke-width:0;stroke-linecap:round;stroke-linejoin:miter;stroke-miterlimit:4;stroke-dasharray:none;stroke-opacity:0.86602873"
       id="rect4825"
       width="0.074083336"
       height="0.0013890625"
       x="-0.15425208"
       y="0.0056158337" />
    <path
       style="opacity:1;fill:#ff0000;stroke:#000000;stroke-width:0;stroke-linecap:round;stroke-linejoin:miter;stroke-miterlimit:4;stroke-dasharray:none;stroke-opacity:0.86602873"
       id="path4827"
       sodipodi:type="arc"
       sodipodi:cx="-0.17918393"
       sodipodi:cy="0.0001568548"
       sodipodi:rx="0.014999509"
       sodipodi:ry="0.013129965"
       sodipodi:start="1.5662812"
       sodipodi:end="1.5612826"
       sodipodi:open="true"
       d="m -0.17911621,0.01328669 a 0.01499951,0.01312997 0 0 1 -0.015067,-0.0130541443 0.01499951,0.01312997 0 0 1 0.014894,-0.0132053357 0.01499951,0.01312997 0 0 1 0.0151042,0.013021139 0.01499951,0.01312997 0 0 1 -0.0148563,0.013237881" />
    <path
       style="opacity:1;fill:#ff8080;stroke:#000000;stroke-width:0;stroke-linecap:round;stroke-linejoin:miter;stroke-miterlimit:4;stroke-dasharray:none;stroke-opacity:0.86602873"
       d="m -0.19097089,0.00257598 a 0.0082686,0.0119793 89.352377 0 0 0.0119678,0.00740497 l 5.988e-5,-6.4e-7 a 0.0082686,0.0119793 89.352377 0 0 0.0118072,-0.00754538 z"
       id="path4829"
       inkscape:connector-curvature="0" />
    <path
       style="opacity:1;fill:none;stroke:#000000;stroke-width:0.00008042;stroke-linecap:round;stroke-linejoin:miter;stroke-miterlimit:4;stroke-dasharray:none;stroke-opacity:0.86602873"
       d="m -0.19092036,0.00264185 a 0.00508401,0.01260175 89.610331 0 0 0.0119967,0.003381 l 6.299e-5,-6.1e-7 a 0.00508401,0.01260175 89.610331 0 0 0.011718,-0.00345754 z"
       id="path4836"
       inkscape:connector-curvature="0" />
    <rect
       style="opacity:1;fill:#f9f9f9;stroke:#000000;stroke-width:0.0001;stroke-linecap:round;stroke-linejoin:miter;stroke-miterlimit:4;stroke-dasharray:none;stroke-opacity:0.86602873"
       id="rect4843"
       width="0.0026660154"
       height="0.0024321526"
       x="-0.17782779"
       y="0.0026425947" />
    <rect
       y="0.0026425947"
       x="-0.1826921"
       height="0.0023386083"
       width="0.0025256963"
       id="rect4847"
       style="opacity:1;fill:#f9f9f9;stroke:#000000;stroke-width:0.0001;stroke-linecap:round;stroke-linejoin:miter;stroke-miterlimit:4;stroke-dasharray:none;stroke-opacity:0.86602873"
       ry="0" />
    <rect
       style="opacity:1;fill:#f9f9f9;stroke:#000000;stroke-width:0.0001;stroke-linecap:round;stroke-linejoin:miter;stroke-miterlimit:4;stroke-dasharray:none;stroke-opacity:0.86602873"
       id="rect4855"
       width="0.001824102"
       height="0.001964431"
       x="-0.18451619"
       y="0.0026425947" />
    <rect
       style="opacity:1;fill:#f9f9f9;stroke:#000000;stroke-width:0.0001;stroke-linecap:round;stroke-linejoin:miter;stroke-miterlimit:4;stroke-dasharray:none;stroke-opacity:0.86602873"
       id="rect4857"
       width="0.0019644371"
       height="0.001683798"
       x="-0.18648063"
       y="0.0026425947" />
    <rect
       style="opacity:1;fill:#f9f9f9;stroke:#000000;stroke-width:0.0001;stroke-linecap:round;stroke-linejoin:miter;stroke-miterlimit:4;stroke-dasharray:none;stroke-opacity:0.86602873"
       id="rect4859"
       width="0.0018241167"
       height="0.0014031649"
       x="-0.18830474"
       y="0.0026425947" />
    <rect
       style="opacity:1;fill:#f9f9f9;stroke:#000000;stroke-width:0.0001;stroke-linecap:round;stroke-linejoin:miter;stroke-miterlimit:4;stroke-dasharray:none;stroke-opacity:0.86602873"
       id="rect4863"
       width="0.0014967154"
       height="0.00098221551"
       x="-0.18980145"
       y="0.0026425947" />
    <rect
       y="0.0026425947"
       x="-0.17511499"
       height="0.001964431"
       width="0.001824102"
       id="rect4874"
       style="opacity:1;fill:#f9f9f9;stroke:#000000;stroke-width:0.0001;stroke-linecap:round;stroke-linejoin:miter;stroke-miterlimit:4;stroke-dasharray:none;stroke-opacity:0.86602873" />
    <rect
       y="0.0026425947"
       x="-0.17329088"
       height="0.001683798"
       width="0.0019644371"
       id="rect4876"
       style="opacity:1;fill:#f9f9f9;stroke:#000000;stroke-width:0.0001;stroke-linecap:round;stroke-linejoin:miter;stroke-miterlimit:4;stroke-dasharray:none;stroke-opacity:0.86602873" />
    <rect
       y="0.0026425947"
       x="-0.17137322"
       height="0.0014031649"
       width="0.0018241167"
       id="rect4878"
       style="opacity:1;fill:#f9f9f9;stroke:#000000;stroke-width:0.0001;stroke-linecap:round;stroke-linejoin:miter;stroke-miterlimit:4;stroke-dasharray:none;stroke-opacity:0.86602873" />
    <rect
       style="opacity:1;fill:#f9f9f9;stroke:#000000;stroke-width:0.0001;stroke-linecap:round;stroke-linejoin:miter;stroke-miterlimit:4;stroke-dasharray:none;stroke-opacity:0.86602873"
       id="rect4882"
       width="0.0014967126"
       height="0.00074835465"
       x="-0.16954911"
       y="0.0026425947" />
    <path
       style="opacity:1;fill:#ffffff;stroke:#000000;stroke-width:0.00012175;stroke-linecap:round;stroke-linejoin:miter;stroke-miterlimit:4;stroke-dasharray:none;stroke-opacity:0.86602873"
       id="path4884"
       sodipodi:type="arc"
       sodipodi:cx="-0.18596858"
       sodipodi:cy="-0.004632825"
       sodipodi:rx="0.00318913"
       sodipodi:ry="0.004839133"
       sodipodi:start="1.5662812"
       sodipodi:end="1.5612825"
       sodipodi:open="true"
       d="m -0.18595418,2.0625865e-4 a 0.00318913,0.00483913 0 0 1 -0.003203,-0.004811189 0.00318913,0.00483913 0 0 1 0.003167,-0.00486691 0.00318913,0.00483913 0 0 1 0.003211,0.00479902 0.00318913,0.00483913 0 0 1 -0.003159,0.004878909" />
    <path
       style="opacity:1;fill:#ffffff;stroke:#000000;stroke-width:0.00011262;stroke-linecap:round;stroke-linejoin:miter;stroke-miterlimit:4;stroke-dasharray:none;stroke-opacity:0.86602873"
       id="path4886"
       sodipodi:type="arc"
       sodipodi:cx="-0.1722455"
       sodipodi:cy="-0.0046330369"
       sodipodi:rx="0.0031936935"
       sodipodi:ry="0.0048436979"
       sodipodi:start="1.5662812"
       sodipodi:end="1.5612825"
       sodipodi:open="true"
       d="m -0.17223108,2.106116e-4 a 0.00319369,0.0048437 0 0 1 -0.003208,-0.004815722 0.00319369,0.0048437 0 0 1 0.003171,-0.00487151 0.00319369,0.0048437 0 0 1 0.003216,0.00480355 0.00319369,0.0048437 0 0 1 -0.003163,0.004883512" />
    <path
       style="opacity:1;fill:#000000;stroke:#000000;stroke-width:0.00007427;stroke-linecap:round;stroke-linejoin:miter;stroke-miterlimit:4;stroke-dasharray:none;stroke-opacity:0.86602873"
       id="path4913"
       sodipodi:type="arc"
       sodipodi:cx="-0.18595006"
       sodipodi:cy="-0.0028860546"
       sodipodi:rx="0.0026186157"
       sodipodi:ry="0.0030921751"
       sodipodi:start="1.5662812"
       sodipodi:end="1.5612825"
       sodipodi:open="true"
       d="m -0.18593823,2.0608903e-4 a 0.00261862,0.00309218 0 0 1 -0.00263,-0.003074319 0.00261862,0.00309218 0 0 1 0.0026,-0.00310992 0.00261862,0.00309218 0 0 1 0.002637,0.00306654 0.00261862,0.00309218 0 0 1 -0.002594,0.003117591" />
    <path
       style="opacity:1;fill:#000000;stroke:#000000;stroke-width:0.0001;stroke-linecap:round;stroke-linejoin:miter;stroke-miterlimit:4;stroke-dasharray:none;stroke-opacity:0.86602873"
       id="path4939"
       sodipodi:type="arc"
       sodipodi:cx="-0.16866319"
       sodipodi:cy="-0.021371707"
       sodipodi:rx="0.00049528951"
       sodipodi:ry="1.8742959e-08"
       sodipodi:start="1.5662812"
       sodipodi:end="1.5612825"
       sodipodi:open="true"
       d="m -63745.874,-8077.489 a 187.19604,0.00708395 0 0 1 -188.038,-0.01 187.19604,0.00708395 0 0 1 185.88,-0.01 187.19604,0.00708395 0 0 1 188.503,0.01 187.19604,0.00708395 0 0 1 -185.409,0.01" />
    <path
       d="m -0.17221511,2.1044179e-4 a 0.00261862,0.00309218 0 0 1 -0.00263,-0.003074322 0.00261862,0.00309218 0 0 1 0.0026,-0.00310992 0.00261862,0.00309218 0 0 1 0.002637,0.00306654 0.00261862,0.00309218 0 0 1 -0.002594,0.003117593"
       sodipodi:open="true"
       sodipodi:end="1.5612825"
       sodipodi:start="1.5662812"
       sodipodi:ry="0.0030921751"
       sodipodi:rx="0.0026186157"
       sodipodi:cy="-0.0028817018"
       sodipodi:cx="-0.17222694"
       sodipodi:type="arc"
       id="path4971"
       style="opacity:1;fill:#000000;stroke:#000000;stroke-width:0.00007427;stroke-linecap:round;stroke-linejoin:miter;stroke-miterlimit:4;stroke-dasharray:none;stroke-opacity:0.86602873" />
    <path
       style="opacity:1;fill:#ffffff;stroke:#000000;stroke-width:0.0000554;stroke-linecap:round;stroke-linejoin:miter;stroke-miterlimit:4;stroke-dasharray:none;stroke-opacity:0.86602873"
       d="m -0.19083845,0.00264259 0.001037,6.5083e-4 v -6.5083e-4 z"
       id="rect4973"
       inkscape:connector-curvature="0" />
    <path
       inkscape:connector-curvature="0"
       id="path4980"
       d="m -0.16730719,0.00264259 -7.452e-4,6.5083e-4 v -6.5083e-4 z"
       style="opacity:1;fill:#ffffff;stroke:#000000;stroke-width:0.00004696;stroke-linecap:round;stroke-linejoin:miter;stroke-miterlimit:4;stroke-dasharray:none;stroke-opacity:0.86602873"
       inkscape:transform-center-x="0.00042865944"
       inkscape:transform-center-y="-1.119405e-05" />
  </g>
</svg>
