<?xml version="1.0" encoding="UTF-8" standalone="no"?>
<!-- Created with Inkscape (http://www.inkscape.org/) -->

<svg
   xmlns:dc="http://purl.org/dc/elements/1.1/"
   xmlns:cc="http://creativecommons.org/ns#"
   xmlns:rdf="http://www.w3.org/1999/02/22-rdf-syntax-ns#"
   xmlns:svg="http://www.w3.org/2000/svg"
   xmlns="http://www.w3.org/2000/svg"
   xmlns:sodipodi="http://sodipodi.sourceforge.net/DTD/sodipodi-0.dtd"
   xmlns:inkscape="http://www.inkscape.org/namespaces/inkscape"
   width="210mm"
   height="297mm"
   viewBox="0 0 210 297"
   version="1.1"
   id="svg5029"
   inkscape:version="0.92.4 (5da689c313, 2019-01-14)"
   sodipodi:docname="Personligt Varumärke.svg">
  <defs
     id="defs5023">
    <inkscape:perspective
       sodipodi:type="inkscape:persp3d"
       inkscape:vp_x="0 : 148.5 : 1"
       inkscape:vp_y="0 : 1000 : 0"
       inkscape:vp_z="210 : 148.5 : 1"
       inkscape:persp3d-origin="105 : 99 : 1"
       id="perspective6649" />
    <marker
       inkscape:stockid="Arrow1Lstart"
       orient="auto"
       refY="0.0"
       refX="0.0"
       id="marker6467"
       style="overflow:visible"
       inkscape:isstock="true">
      <path
         id="path6465"
         d="M 0.0,0.0 L 5.0,-5.0 L -12.5,0.0 L 5.0,5.0 L 0.0,0.0 z "
         style="fill-rule:evenodd;stroke:none;stroke-width:1pt;stroke-opacity:1;fill:#000000;fill-opacity:0.9945355"
         transform="scale(0.8) translate(12.5,0)" />
    </marker>
    <marker
       inkscape:stockid="Arrow1Lstart"
       orient="auto"
       refY="0.0"
       refX="0.0"
       id="marker6409"
       style="overflow:visible"
       inkscape:isstock="true">
      <path
         id="path6407"
         d="M 0.0,0.0 L 5.0,-5.0 L -12.5,0.0 L 5.0,5.0 L 0.0,0.0 z "
         style="fill-rule:evenodd;stroke:none;stroke-width:1pt;stroke-opacity:1;fill:#000000;fill-opacity:0.9945355"
         transform="scale(0.8) translate(12.5,0)" />
    </marker>
    <marker
       inkscape:stockid="Arrow1Lstart"
       orient="auto"
       refY="0.0"
       refX="0.0"
       id="marker6357"
       style="overflow:visible"
       inkscape:isstock="true">
      <path
         id="path6355"
         d="M 0.0,0.0 L 5.0,-5.0 L -12.5,0.0 L 5.0,5.0 L 0.0,0.0 z "
         style="fill-rule:evenodd;stroke:none;stroke-width:1pt;stroke-opacity:1;fill:#000000;fill-opacity:0.9945355"
         transform="scale(0.8) translate(12.5,0)" />
    </marker>
    <marker
       inkscape:stockid="Arrow1Lstart"
       orient="auto"
       refY="0.0"
       refX="0.0"
       id="marker6275"
       style="overflow:visible"
       inkscape:isstock="true">
      <path
         id="path6273"
         d="M 0.0,0.0 L 5.0,-5.0 L -12.5,0.0 L 5.0,5.0 L 0.0,0.0 z "
         style="fill-rule:evenodd;stroke:none;stroke-width:1pt;stroke-opacity:1;fill:#000000;fill-opacity:0.9945355"
         transform="scale(0.8) translate(12.5,0)" />
    </marker>
    <marker
       inkscape:stockid="Arrow1Lstart"
       orient="auto"
       refY="0.0"
       refX="0.0"
       id="marker6235"
       style="overflow:visible"
       inkscape:isstock="true">
      <path
         id="path6233"
         d="M 0.0,0.0 L 5.0,-5.0 L -12.5,0.0 L 5.0,5.0 L 0.0,0.0 z "
         style="fill-rule:evenodd;stroke:none;stroke-width:1pt;stroke-opacity:1;fill:#000000;fill-opacity:0.9945355"
         transform="scale(0.8) translate(12.5,0)" />
    </marker>
    <marker
       inkscape:stockid="Arrow1Lstart"
       orient="auto"
       refY="0.0"
       refX="0.0"
       id="marker6201"
       style="overflow:visible"
       inkscape:isstock="true">
      <path
         id="path6199"
         d="M 0.0,0.0 L 5.0,-5.0 L -12.5,0.0 L 5.0,5.0 L 0.0,0.0 z "
         style="fill-rule:evenodd;stroke:none;stroke-width:1pt;stroke-opacity:1;fill:#000000;fill-opacity:0.9945355"
         transform="scale(0.8) translate(12.5,0)" />
    </marker>
    <marker
       inkscape:stockid="Arrow1Lstart"
       orient="auto"
       refY="0.0"
       refX="0.0"
       id="marker6173"
       style="overflow:visible"
       inkscape:isstock="true">
      <path
         id="path6171"
         d="M 0.0,0.0 L 5.0,-5.0 L -12.5,0.0 L 5.0,5.0 L 0.0,0.0 z "
         style="fill-rule:evenodd;stroke:none;stroke-width:1pt;stroke-opacity:1;fill:#000000;fill-opacity:0.9945355"
         transform="scale(0.8) translate(12.5,0)" />
    </marker>
    <marker
       inkscape:stockid="Arrow1Lstart"
       orient="auto"
       refY="0.0"
       refX="0.0"
       id="marker6151"
       style="overflow:visible"
       inkscape:isstock="true">
      <path
         id="path6149"
         d="M 0.0,0.0 L 5.0,-5.0 L -12.5,0.0 L 5.0,5.0 L 0.0,0.0 z "
         style="fill-rule:evenodd;stroke:none;stroke-width:1pt;stroke-opacity:1;fill:#000000;fill-opacity:0.9945355"
         transform="scale(0.8) translate(12.5,0)" />
    </marker>
    <marker
       inkscape:stockid="Arrow1Lstart"
       orient="auto"
       refY="0.0"
       refX="0.0"
       id="Arrow1Lstart"
       style="overflow:visible"
       inkscape:isstock="true">
      <path
         id="path5873"
         d="M 0.0,0.0 L 5.0,-5.0 L -12.5,0.0 L 5.0,5.0 L 0.0,0.0 z "
         style="fill-rule:evenodd;stroke:none;stroke-width:1pt;stroke-opacity:1;fill:#000000;fill-opacity:0.9945355"
         transform="scale(0.8) translate(12.5,0)" />
    </marker>
  </defs>
  <sodipodi:namedview
     id="base"
     pagecolor="#ffffff"
     bordercolor="#666666"
     borderopacity="1.0"
     inkscape:pageopacity="0.0"
     inkscape:pageshadow="2"
     inkscape:zoom="0.64"
     inkscape:cx="-128.21768"
     inkscape:cy="595.14632"
     inkscape:document-units="px"
     inkscape:current-layer="layer1"
     showgrid="false"
     showborder="false"
     inkscape:snap-smooth-nodes="true"
     inkscape:snap-intersection-paths="true"
     showguides="false"
     inkscape:guide-bbox="true"
     inkscape:window-width="1920"
     inkscape:window-height="1001"
     inkscape:window-x="-9"
     inkscape:window-y="-9"
     inkscape:window-maximized="1" />
  <metadata
     id="metadata5026">
    <rdf:RDF>
      <cc:Work
         rdf:about="">
        <dc:format>image/svg+xml</dc:format>
        <dc:type
           rdf:resource="http://purl.org/dc/dcmitype/StillImage" />
        <dc:title></dc:title>
      </cc:Work>
    </rdf:RDF>
  </metadata>
  <g
     inkscape:label="Layer 1"
     inkscape:groupmode="layer"
     id="layer1">
    <path
       style="color:#000000;font-style:normal;font-variant:normal;font-weight:normal;font-stretch:normal;font-size:medium;line-height:normal;font-family:sans-serif;font-variant-ligatures:normal;font-variant-position:normal;font-variant-caps:normal;font-variant-numeric:normal;font-variant-alternates:normal;font-feature-settings:normal;text-indent:0;text-align:start;text-decoration:none;text-decoration-line:none;text-decoration-style:solid;text-decoration-color:#000000;letter-spacing:normal;word-spacing:normal;text-transform:none;writing-mode:lr-tb;direction:ltr;text-orientation:mixed;dominant-baseline:auto;baseline-shift:baseline;text-anchor:start;white-space:normal;shape-padding:0;clip-rule:nonzero;display:inline;overflow:visible;visibility:visible;opacity:1;isolation:auto;mix-blend-mode:normal;color-interpolation:sRGB;color-interpolation-filters:linearRGB;solid-color:#000000;solid-opacity:1;vector-effect:none;fill:#008000;fill-opacity:0.9945355;fill-rule:nonzero;stroke:#000000;stroke-width:11.90625;stroke-linecap:round;stroke-linejoin:miter;stroke-miterlimit:4;stroke-dasharray:none;stroke-dashoffset:0;stroke-opacity:1;color-rendering:auto;image-rendering:auto;shape-rendering:auto;text-rendering:auto;enable-background:accumulate"
       d="m -45.078988,66.354619 c -27.06767,0.230921 -53.97188,4.23789 -79.931632,11.90625 l -5.79883,1.71289 1.1875,5.931641 c 11.52223,57.47311 40.140022,110.12605 82.099602,151.05664 l 4.6211,4.50781 4.61914,-4.50976 c 41.9265897,-40.93647 70.51264,-93.582 82.01562,-151.039065 l 1.1875,-5.929688 -5.79882,-1.71289 c -27.32628,-8.076533 -55.68927,-12.093359 -84.1836,-11.923828 h -0.01 z"
       id="path5587"
       inkscape:connector-curvature="0" />
    <text
       xml:space="preserve"
       style="font-style:normal;font-variant:normal;font-weight:normal;font-stretch:normal;font-size:25.54781532px;line-height:1.25;font-family:'Berlin Sans FB';-inkscape-font-specification:'Berlin Sans FB, Normal';font-variant-ligatures:normal;font-variant-caps:normal;font-variant-numeric:normal;font-feature-settings:normal;text-align:start;letter-spacing:0px;word-spacing:0px;writing-mode:lr-tb;text-anchor:start;fill:#000000;fill-opacity:1;stroke:none;stroke-width:0.63869536"
       x="-127.40448"
       y="110.66176"
       id="text5612"
       transform="scale(0.71206215,1.4043718)"><tspan
         sodipodi:role="line"
         id="tspan5610"
         x="-127.40448"
         y="110.66176"
         style="font-style:normal;font-variant:normal;font-weight:normal;font-stretch:normal;font-size:25.54781532px;font-family:'Berlin Sans FB';-inkscape-font-specification:'Berlin Sans FB, Normal';font-variant-ligatures:normal;font-variant-caps:normal;font-variant-numeric:normal;font-feature-settings:normal;text-align:start;writing-mode:lr-tb;text-anchor:start;fill:#000000;stroke-width:0.63869536">CARLSBERG</tspan><tspan
         sodipodi:role="line"
         x="-127.40448"
         y="142.59653"
         style="font-style:normal;font-variant:normal;font-weight:normal;font-stretch:normal;font-size:25.54781532px;font-family:'Berlin Sans FB';-inkscape-font-specification:'Berlin Sans FB, Normal';font-variant-ligatures:normal;font-variant-caps:normal;font-variant-numeric:normal;font-feature-settings:normal;text-align:start;writing-mode:lr-tb;text-anchor:start;fill:#000000;stroke-width:0.63869536"
         id="tspan5614" /></text>
    <path
       style="color:#000000;font-style:normal;font-variant:normal;font-weight:normal;font-stretch:normal;font-size:medium;line-height:normal;font-family:sans-serif;font-variant-ligatures:normal;font-variant-position:normal;font-variant-caps:normal;font-variant-numeric:normal;font-variant-alternates:normal;font-feature-settings:normal;text-indent:0;text-align:start;text-decoration:none;text-decoration-line:none;text-decoration-style:solid;text-decoration-color:#000000;letter-spacing:normal;word-spacing:normal;text-transform:none;writing-mode:lr-tb;direction:ltr;text-orientation:mixed;dominant-baseline:auto;baseline-shift:baseline;text-anchor:start;white-space:normal;shape-padding:0;clip-rule:nonzero;display:inline;overflow:visible;visibility:visible;opacity:1;isolation:auto;mix-blend-mode:normal;color-interpolation:sRGB;color-interpolation-filters:linearRGB;solid-color:#000000;solid-opacity:1;vector-effect:none;fill:#000000;fill-opacity:0.9945355;fill-rule:nonzero;stroke:none;stroke-width:13.22916317;stroke-linecap:round;stroke-linejoin:miter;stroke-miterlimit:4;stroke-dasharray:none;stroke-dashoffset:0;stroke-opacity:1;color-rendering:auto;image-rendering:auto;shape-rendering:auto;text-rendering:auto;enable-background:accumulate"
       d="m -42.612531,80.67264 c -0.78413,-0.002 -1.56841,-5.96e-4 -2.35283,0.0041 h -0.0176 c -23.73876,0.20403 -47.31251,3.594195 -70.209149,9.798885 2.08581,9.309775 4.6507,18.472915 7.66155,27.463445 a 2.0255274,4.2540472 0 0 1 1.2454,-0.92811 2.0255274,4.2540472 0 0 1 1.87017,2.55178 h 12.347049 a 2.0255274,4.2540472 0 0 1 1.40664,-1.22835 2.0255274,4.2540472 0 0 1 0.0145,0.001 2.0802657,3.710954 0 0 1 0,-0.001 2.0802657,3.710954 0 0 1 2.0655,-3.73207 2.0802657,3.710954 0 0 1 2.09445,3.6804 2.0802657,3.710954 0 0 1 -0.12248,1.28002 h 3.81424 a 2.0255274,4.2540472 0 0 1 -0.50384,-2.77967 2.0255274,4.2540472 0 0 1 2.01124,-4.2783 2.0255274,4.2540472 0 0 1 2.03967,4.21887 2.0255274,4.2540472 0 0 1 -0.50539,2.8391 h 6.18928 a 2.0255274,4.2540472 0 0 1 -0.77928,-3.32848 2.0255274,4.2540472 0 0 1 2.01125,-4.27881 2.0255274,4.2540472 0 0 1 2.03967,4.21887 2.0255274,4.2540472 0 0 1 -0.7829,3.38842 h 3.32383 a 2.0255274,4.2540472 0 0 1 1.84536,-2.57917 2.0255274,4.2540472 0 0 1 1.87586,2.57917 h 5.55728 a 2.0255274,4.2540472 0 0 1 -0.24649,-2.00556 2.0255274,4.2540472 0 0 1 2.01124,-4.27829 2.0255274,4.2540472 0 0 1 2.03967,4.21886 2.0255274,4.2540472 0 0 1 -0.24805,2.06499 h 6.55981 a 2.0802657,3.710954 0 0 1 0.82837,-2.41432 2.0255274,4.2540472 0 0 1 1.40457,-1.22318 2.0255274,4.2540472 0 0 1 2.0159,3.6375 h 3.12694 a 2.0255274,4.2540472 0 0 1 -0.0558,-0.94723 2.0255274,4.2540472 0 0 1 2.01124,-4.27829 2.0255274,4.2540472 0 0 1 2.03967,4.21835 2.0255274,4.2540472 0 0 1 -0.0558,1.00717 h 5.09736 a 2.0255274,4.2540472 0 0 1 -0.13694,-1.49655 2.0255274,4.2540472 0 0 1 2.01125,-4.27829 h 5.1e-4 a 2.0255274,4.2540472 0 0 1 2.03916,4.21887 2.0255274,4.2540472 0 0 1 -0.13436,1.55597 h 3.38946 a 2.0255274,4.2540472 0 0 1 1.13171,-0.74672 2.0255274,4.2540472 0 0 1 1.156,0.74672 h 6.03529 a 2.0255274,4.2540472 0 0 1 -0.005,-0.17312 2.0255274,4.2540472 0 0 1 2.01125,-4.2788 2.0255274,4.2540472 0 0 1 2.03967,4.21886 2.0255274,4.2540472 0 0 1 -0.003,0.23306 h 1.68723 a 2.0802657,3.710954 0 0 1 -0.46922,-2.32182 2.0802657,3.710954 0 0 1 2.0655005,-3.73259 2.0802657,3.710954 0 0 1 2.09497,3.6804 2.0802657,3.710954 0 0 1 -0.46974,2.37401 h 1.9998804 a 2.0255274,4.2540472 0 0 1 1.63866,-1.80506 2.0255274,4.2540472 0 0 1 0.29455,0.045 2.0255274,4.2540472 0 0 1 -0.27595,-2.11305 2.0255274,4.2540472 0 0 1 2.01125,-4.27829 2.0255274,4.2540472 0 0 1 2.03966995,4.21887 2.0255274,4.2540472 0 0 1 -1.21440005,3.93257 H 11.558619 a 2.0255274,4.2540472 0 0 1 1.99057,-3.67264 2.0255274,4.2540472 0 0 1 2.01848,3.67264 h 5.54902 c 0.0387,-0.11337 0.0751,-0.22763 0.11369,-0.34106 a 2.0255274,4.2540472 0 0 1 -0.49456,-2.75797 2.0255274,4.2540472 0 0 1 2.01126,-4.27829 2.0255274,4.2540472 0 0 1 0.69556,0.25114 c 2.24631,-7.2089 4.2037,-14.5245 5.86136,-21.931476 -3.00736,-0.81547 -6.02636,-1.581684 -9.05576,-2.299084 a 2.0255274,4.2540472 0 0 1 0.003,0.10697 2.0255274,4.2540472 0 0 1 -2.0066,4.289144 h -0.01 a 2.0255274,4.2540472 0 0 1 -2.03448,-4.229199 2.0255274,4.2540472 0 0 1 0.0641,-1.080038 c -3.53237,-0.7836 -7.0782091,-1.498889 -10.6355391,-2.146679 a 2.0255274,4.2540472 0 0 1 1.39216,4.000273 2.0255274,4.2540472 0 0 1 -2.00607,4.289144 h -0.0104 a 2.0255274,4.2540472 0 0 1 -2.03449,-4.229199 2.0255274,4.2540472 0 0 1 1.73221,-4.228683 C -10.901461,82.190043 -26.724681,80.720177 -42.612311,80.673126 Z m -18.63194,4.51497 a 2.0255274,4.2540472 0 0 1 2.04019,4.218863 2.0255274,4.2540472 0 0 1 -2.0066,4.289144 h -0.01 a 2.0255274,4.2540472 0 0 1 -2.03501,-4.229199 2.0255274,4.2540472 0 0 1 2.01124,-4.278808 z m -13.22968,0.834057 a 2.0255274,4.2540472 0 0 1 2.03967,4.218347 2.0255274,4.2540472 0 0 1 -2.00608,4.289144 h -0.0103 a 2.0255274,4.2540472 0 0 1 -2.03451,-4.229199 2.0255274,4.2540472 0 0 1 2.01125,-4.278292 z m 55.49222,0.998389 a 2.0255274,4.2540472 0 0 1 2.03967,4.218864 2.0255274,4.2540472 0 0 1 -2.00608,4.288627 l -0.0103,5.17e-4 a 2.0255274,4.2540472 0 0 1 -2.0345,-4.229716 2.0255274,4.2540472 0 0 1 2.01125,-4.278292 z m -29.15843,0.324528 a 2.0255274,4.2540472 0 0 1 2.03967,4.218864 2.0255274,4.2540472 0 0 1 -2.00608,4.289144 h -0.01 a 2.0255274,4.2540472 0 0 1 -2.03502,-4.229716 2.0255274,4.2540472 0 0 1 2.01124,-4.278292 z m 15.92823,0.509013 a 2.0255274,4.2540472 0 0 1 2.03967,4.218863 2.0255274,4.2540472 0 0 1 -2.00608,4.288628 l -0.01,5.16e-4 a 2.0255274,4.2540472 0 0 1 -2.03502,-4.229715 2.0255274,4.2540472 0 0 1 2.01125,-4.278292 z m 26.3343109,1.323433 a 2.0255274,4.2540472 0 0 1 2.03967,4.218347 2.0255274,4.2540472 0 0 1 -10e-4,0.05788 2.0255274,4.2540472 0 0 1 1.00873,-0.58601 2.0255274,4.2540472 0 0 1 2.03966995,4.218346 2.0255274,4.2540472 0 0 1 -2.00659995,4.289147 h -0.01 a 2.0255274,4.2540472 0 0 1 -2.0345,-4.2292 2.0255274,4.2540472 0 0 1 5.2e-4,-0.04599 2.0255274,4.2540472 0 0 1 -1.00304,0.584972 l -0.0103,5.2e-4 a 2.0255274,4.2540472 0 0 1 -2.0345104,-4.229716 2.0255274,4.2540472 0 0 1 2.0112504,-4.278292 z m -89.3196109,1.066085 a 2.0255274,4.2540472 0 0 1 2.03967,4.218864 2.0255274,4.2540472 0 0 1 -2.00608,4.289141 h -0.01 a 2.0255274,4.2540472 0 0 1 -2.03502,-4.229713 2.0255274,4.2540472 0 0 1 2.01125,-4.278292 z m -13.229689,0.834058 a 2.0255274,4.2540472 0 0 1 2.03967,4.218347 2.0255274,4.2540472 0 0 1 -2.00659,4.28914 h -0.01 a 2.0255274,4.2540472 0 0 1 -2.0345,-4.229196 2.0255274,4.2540472 0 0 1 2.01124,-4.278291 z m 26.329149,1.322916 a 2.0255274,4.2540472 0 0 1 0.005,0 2.0255274,4.2540472 0 0 1 2.03967,4.218864 2.0255274,4.2540472 0 0 1 -0.19689,1.857247 2.0255274,4.2540472 0 0 1 -2.00246,3.99201 h -0.01 a 2.0255274,4.2540472 0 0 1 -2.0345,-4.2292 2.0255274,4.2540472 0 0 1 0.19688,-1.8464 2.0255274,4.2540472 0 0 1 2.00247,-3.992521 z m 42.07391,3.392558 a 2.0255274,4.2540472 0 0 1 2.03967,4.218863 2.0255274,4.2540472 0 0 1 -2.00608,4.28915 h -0.0103 a 2.0255274,4.2540472 0 0 1 -2.0345,-4.22972 2.0255274,4.2540472 0 0 1 2.01124,-4.278293 z m 49.1634009,0.514697 a 2.0255274,4.2540472 0 0 1 2.0396691,4.218866 2.0255274,4.2540472 0 0 1 -2.0060691,4.28863 l -0.0103,5.1e-4 a 2.0255274,4.2540472 0 0 1 -2.03449,-4.22971 2.0255274,4.2540472 0 0 1 2.01123,-4.278296 z M -70.316261,97.40082 a 2.0255274,4.2540472 0 0 1 2.03966,4.21887 2.0255274,4.2540472 0 0 1 -2.00607,4.28862 l -0.0103,5.2e-4 a 2.0255274,4.2540472 0 0 1 -2.0345,-4.22972 2.0255274,4.2540472 0 0 1 2.01125,-4.27829 z m 90.03997,1.02371 a 2.0255274,4.2540472 0 0 1 2.03967,4.21887 2.0255274,4.2540472 0 0 1 -2.0066,4.28862 l -0.01,5.2e-4 a 2.0255274,4.2540472 0 0 1 -2.03501,-4.22972 2.0255274,4.2540472 0 0 1 2.01176,-4.27829 z m -47.77744,0.80873 a 2.0255274,4.2540472 0 0 1 2.03967,4.21836 2.0255274,4.2540472 0 0 1 -2.00659,4.28914 h -0.01 a 2.0255274,4.2540472 0 0 1 -2.0345,-4.2292 2.0255274,4.2540472 0 0 1 2.01124,-4.2783 z m -31.67868,0.28474 a 2.0255274,4.2540472 0 0 1 2.03967,4.21887 2.0255274,4.2540472 0 0 1 -2.00608,4.28863 l -0.01,5.1e-4 a 2.0255274,4.2540472 0 0 1 -2.03502,-4.22971 2.0255274,4.2540472 0 0 1 2.01125,-4.2783 z m 42.26253,1.83193 a 2.0255274,4.2540472 0 0 1 2.03967,4.21887 2.0255274,4.2540472 0 0 1 -2.00608,4.28914 h -0.0103 a 2.0255274,4.2540472 0 0 1 -2.0345,-4.2292 2.0255274,4.2540472 0 0 1 2.01124,-4.27881 z m -86.799349,1.1064 a 2.0255274,4.2540472 0 0 1 2.03967,4.21886 2.0255274,4.2540472 0 0 1 -2.00608,4.28863 l -0.0103,5.1e-4 a 2.0255274,4.2540472 0 0 1 -2.0345,-4.22971 2.0255274,4.2540472 0 0 1 2.01124,-4.27829 z m 10.583849,2.11718 a 2.0255274,4.2540472 0 0 1 2.03967,4.21835 2.0255274,4.2540472 0 0 1 -2.00608,4.28914 h -0.01 a 2.0255274,4.2540472 0 0 1 -2.03502,-4.2292 2.0255274,4.2540472 0 0 1 2.01125,-4.27829 z m 100.8088309,6.2885 a 2.0255274,4.2540472 0 0 1 2.03968,4.21887 2.0255274,4.2540472 0 0 1 -2.00607,4.28914 h -0.0104 a 2.0255274,4.2540472 0 0 1 -2.03451,-4.22971 2.0255274,4.2540472 0 0 1 2.01125,-4.2783 z m -91.4357609,58.41246 c 0.0447,0.0769 0.0901,0.15358 0.13488,0.23047 a 2.0802657,3.710954 0 0 1 0.29145,-0.045 2.0802657,3.710954 0 0 1 2.09497,3.6804 2.0802657,3.710954 0 0 1 -0.0103,0.36277 c 2.3736,3.92123 4.84516,7.78509 7.41247,11.5874 a 2.0255274,4.2540472 0 0 1 1.46037,-1.33997 2.0255274,4.2540472 0 0 1 2.03967,4.21887 2.0255274,4.2540472 0 0 1 -0.20464,1.8929 c 0.93284,1.3212 1.8797,2.63333 2.83601,3.93878 a 2.4162892,2.4162223 0 0 1 0.73638,-0.12092 2.4162892,2.4162223 0 0 1 2.43293,2.39624 2.4162892,2.4162223 0 0 1 -0.43305,1.39474 c 4.34736,5.73397 8.92354,11.30806 13.72268,16.70751 a 2.4162892,2.4162223 0 0 1 -0.0853,-0.6103 2.4162892,2.4162223 0 0 1 2.39934,-2.42982 2.4162892,2.4162223 0 0 1 2.43344,2.39623 2.4162892,2.4162223 0 0 1 -2.39365,2.43603 h -0.0119 a 2.4162892,2.4162223 0 0 1 -0.88676,-0.16485 c 0.4874,0.53976 0.97779,1.07715 1.46968,1.61334 a 2.4162892,2.4162223 0 0 1 2.31562,-1.78697 2.4162892,2.4162223 0 0 1 2.43292,2.39623 2.4162892,2.4162223 0 0 1 -1.95388,2.39004 c 1.04845,1.10951 2.10398,2.21289 3.1719,3.30626 1.4844,-1.52118 2.94834,-3.05934 4.39508,-4.61161 a 2.4162892,2.4162223 0 0 1 1.57458,-1.70119 c 1.17596,-1.28304 2.33737,-2.57805 3.48764,-3.88141 a 2.4162892,2.4162223 0 0 1 -1.52911,-2.23242 2.4162892,2.4162223 0 0 1 2.39934,-2.42983 2.4162892,2.4162223 0 0 1 2.11615,1.22163 c 1.77577,-2.07993 3.52075,-4.18304 5.23172,-6.31124 a 2.4162892,2.4162223 0 0 1 -2.38177,-2.40089 2.4162892,2.4162223 0 0 1 2.39883,-2.42982 h 5.1e-4 a 2.4162892,2.4162223 0 0 1 2.358,1.82986 c 3.36303,-4.30327 6.59782,-8.69826 9.69501,-13.18266 a 2.0255274,4.2540472 0 0 1 -1.6769,-4.1646 2.0255274,4.2540472 0 0 1 2.01125,-4.27829 2.0255274,4.2540472 0 0 1 2.03915,4.21886 2.0255274,4.2540472 0 0 1 -0.032,0.77876 c 2.7072205,-4.04837 5.3060109,-8.16565 7.7943609,-12.34705 a 2.0255274,4.2540472 0 0 1 -1.22525,-2.52853 h -8.2072509 a 2.0255274,4.2540472 0 0 1 -0.46147,0.1261 h -0.0103 a 2.0255274,4.2540472 0 0 1 -0.4904,-0.1261 h -6.70399 a 2.0255274,4.2540472 0 0 1 -1.99368,3.83078 h -0.01 a 2.0255274,4.2540472 0 0 1 -2.02417,-3.83078 h -19.76778 a 2.0802657,3.710954 0 0 1 -0.8723,0.36277 h -0.0103 a 2.0802657,3.710954 0 0 1 -0.90279,-0.36277 h -4.91649 a 2.0255274,4.2540472 0 0 1 0.64854,3.08096 2.0255274,4.2540472 0 0 1 -2.0066,4.28914 h -0.01 a 2.0255274,4.2540472 0 0 1 -2.0345,-4.2292 2.0255274,4.2540472 0 0 1 0.65009,-3.1409 h -12.41474 a 2.0255274,4.2540472 0 0 1 0.19068,1.75804 2.0255274,4.2540472 0 0 1 -2.00608,4.28914 h -0.01 a 2.0255274,4.2540472 0 0 1 -2.0345,-4.22972 2.0255274,4.2540472 0 0 1 0.19121,-1.81746 h -5.43275 a 2.0255274,4.2540472 0 0 1 0.33693,2.30736 2.0255274,4.2540472 0 0 1 -2.00608,4.28862 l -0.0103,5.2e-4 a 2.0255274,4.2540472 0 0 1 -2.03502,-4.22971 2.0255274,4.2540472 0 0 1 0.33693,-2.36679 z m 42.88369,1.50895 a 2.0255274,4.2540472 0 0 1 2.03967,4.21886 2.0255274,4.2540472 0 0 1 -2.00608,4.28863 l -0.0103,5.2e-4 a 2.0255274,4.2540472 0 0 1 -2.0345,-4.22972 2.0255274,4.2540472 0 0 1 2.01125,-4.27829 z m -19.78226,1.05833 a 2.0255274,4.2540472 0 0 1 2.03967,4.21887 2.0255274,4.2540472 0 0 1 -2.00608,4.28914 h -0.01 a 2.0255274,4.2540472 0 0 1 -2.03502,-4.2292 2.0255274,4.2540472 0 0 1 2.01124,-4.27881 z m 27.342,4.66432 a 2.0255274,4.2540472 0 0 1 2.03967,4.21886 2.0255274,4.2540472 0 0 1 -2.00659,4.28914 h -0.01 a 2.0255274,4.2540472 0 0 1 -2.0345,-4.22971 2.0255274,4.2540472 0 0 1 2.01124,-4.27829 z m 8.69405,2.91093 a 2.0255274,4.2540472 0 0 1 2.03967,4.21886 2.0255274,4.2540472 0 0 1 -2.0066,4.28915 h -0.01 a 2.0255274,4.2540472 0 0 1 -2.0345,-4.22972 2.0255274,4.2540472 0 0 1 2.01125,-4.27829 z m -26.71207,6.97993 a 2.0255274,4.2540472 0 0 1 2.03967,4.21887 2.0255274,4.2540472 0 0 1 -2.00608,4.28862 l -0.01,5.2e-4 a 2.0255274,4.2540472 0 0 1 -2.0345,-4.22971 2.0255274,4.2540472 0 0 1 2.01073,-4.2783 z m -12.34756,0.26459 a 2.0255274,4.2540472 0 0 1 2.03915,4.21886 2.0255274,4.2540472 0 0 1 -2.00608,4.28915 h -0.01 a 2.0255274,4.2540472 0 0 1 -2.03502,-4.22972 2.0255274,4.2540472 0 0 1 2.01177,-4.27829 z m 37.21633,4.14703 a 2.4162892,2.4162223 0 0 1 2.43344,2.39624 2.4162892,2.4162223 0 0 1 -2.39365,2.43602 l -0.0119,5.2e-4 a 2.4162892,2.4162223 0 0 1 -2.42724,-2.40244 2.4162892,2.4162223 0 0 1 2.39934,-2.43034 z m -15.7825,0.47387 a 2.4162892,2.4162223 0 0 1 2.43344,2.39624 2.4162892,2.4162223 0 0 1 -2.39313,2.43603 h -0.0124 a 2.4162892,2.4162223 0 0 1 -2.42672,-2.40244 2.4162892,2.4162223 0 0 1 2.39882,-2.42983 z m -9.08834,3.62252 a 2.4162892,2.4162223 0 0 1 2.43293,2.39624 2.4162892,2.4162223 0 0 1 -0.23461,1.05523 2.4162892,2.4162223 0 0 1 -2.389,2.26756 h -0.0119 a 2.4162892,2.4162223 0 0 1 -2.42724,-2.40244 2.4162892,2.4162223 0 0 1 0.23513,-1.04851 2.4162892,2.4162223 0 0 1 2.39468,-2.26808 z m 14.04876,2.84066 a 2.4162892,2.4162223 0 0 1 2.43293,2.39623 2.4162892,2.4162223 0 0 1 -2.39314,2.43603 h -0.0119 a 2.4162892,2.4162223 0 0 1 -2.42725,-2.40244 2.4162892,2.4162223 0 0 1 2.39934,-2.42982 z m -2.40502,8.26667 a 2.4162892,2.4162223 0 0 1 2.43344,2.39624 2.4162892,2.4162223 0 0 1 -2.39365,2.43603 h -0.0119 a 2.4162892,2.4162223 0 0 1 -2.42725,-2.40192 2.4162892,2.4162223 0 0 1 2.39934,-2.43035 z m -10.68307,0.31213 a 2.4162892,2.4162223 0 0 1 2.43293,2.39623 2.4162892,2.4162223 0 0 1 -2.39314,2.43603 h -0.0119 a 2.4162892,2.4162223 0 0 1 -2.42724,-2.40243 2.4162892,2.4162223 0 0 1 2.39934,-2.42983 z"
       id="path5574"
       inkscape:connector-curvature="0" />
    <flowRoot
       xml:space="preserve"
       id="flowRoot5865"
       style="fill:black;fill-opacity:1;stroke:none;font-family:sans-serif;font-style:normal;font-weight:normal;font-size:40px;line-height:1.25;letter-spacing:0px;word-spacing:0px"><flowRegion
         id="flowRegion5867"><rect
           id="rect5869"
           width="861.42859"
           height="804.28571"
           x="-712.85712"
           y="122.51968" /></flowRegion><flowPara
         id="flowPara5871"></flowPara></flowRoot>    <g
       aria-label="ÖL SEDAN 1875"
       style="font-style:normal;font-weight:normal;font-size:10.58333302px;line-height:1.25;font-family:sans-serif;letter-spacing:0px;word-spacing:0px;fill:#000000;fill-opacity:1;stroke:none;stroke-width:0.26458332"
       id="text6653"
       transform="matrix(0.68640122,0.14403126,-0.11858457,0.56513144,80.632993,26.628931)">
      <path
         d="m -112.3084,77.28214 q 0.47026,0.516765 0.7183,1.266073 0.25322,0.749308 0.25322,1.700154 0,0.950847 -0.25838,1.705323 -0.25322,0.749308 -0.71314,1.250569 -0.47542,0.521932 -1.12654,0.785482 -0.64596,0.26355 -1.47795,0.26355 -0.81132,0 -1.47795,-0.268718 -0.66145,-0.268717 -1.12654,-0.780314 -0.46509,-0.511596 -0.7183,-1.255737 -0.24805,-0.744141 -0.24805,-1.700155 0,-0.940511 0.24805,-1.684651 0.24804,-0.749308 0.72347,-1.281576 0.45475,-0.506429 1.12654,-0.775146 0.67696,-0.268718 1.47278,-0.268718 0.82682,0 1.48311,0.273885 0.66146,0.268718 1.12138,0.769979 z m -0.093,2.966227 q 0,-1.498616 -0.67179,-2.309936 -0.67179,-0.816488 -1.83451,-0.816488 -1.17306,0 -1.84485,0.816488 -0.66663,0.81132 -0.66663,2.309936 0,1.51412 0.68213,2.320272 0.68213,0.800985 1.82935,0.800985 1.14721,0 1.82418,-0.800985 0.68212,-0.806152 0.68212,-2.320272 z m -0.93534,-4.821411 h -1.02836 v -1.00769 h 1.02836 z m -2.13424,0 h -1.02836 v -1.00769 h 1.02836 z"
         style="stroke-width:0.26458332"
         id="path6655"
         inkscape:connector-curvature="0" />
      <path
         d="m -104.83082,84.093094 h -4.86792 v -7.694621 h 1.02319 v 6.785116 h 3.84473 z"
         style="stroke-width:0.26458332"
         id="path6657"
         inkscape:connector-curvature="0" />
      <path
         d="m -94.495533,81.896846 q 0,0.449585 -0.211873,0.888834 -0.206706,0.43925 -0.583944,0.744141 -0.413411,0.330729 -0.966349,0.516764 -0.54777,0.186035 -1.322916,0.186035 -0.831991,0 -1.498617,-0.155029 -0.661458,-0.155029 -1.348758,-0.45992 v -1.281576 h 0.0724 q 0.583944,0.485759 1.348755,0.749308 0.764811,0.26355 1.436605,0.26355 0.950846,0 1.477946,-0.356567 0.532267,-0.356567 0.532267,-0.950846 0,-0.511597 -0.253215,-0.754476 -0.248046,-0.24288 -0.759643,-0.377238 -0.387573,-0.103353 -0.842326,-0.170532 -0.449585,-0.06718 -0.956014,-0.170533 -1.023193,-0.217041 -1.519287,-0.738973 -0.490928,-0.527099 -0.490928,-1.369425 0,-0.966349 0.81649,-1.581299 0.816487,-0.620117 2.072224,-0.620117 0.81132,0 1.488282,0.155029 0.676961,0.15503 1.198893,0.382406 v 1.209228 h -0.07235 q -0.43925,-0.37207 -1.157552,-0.614949 -0.713135,-0.248047 -1.462443,-0.248047 -0.821655,0 -1.322917,0.341064 -0.496094,0.341065 -0.496094,0.8785 0,0.480591 0.248047,0.754476 0.248047,0.273885 0.873332,0.418579 0.330729,0.07235 0.940511,0.1757 0.609782,0.103352 1.033529,0.211873 0.857828,0.227376 1.29191,0.687296 0.434082,0.459921 0.434082,1.286744 z"
         style="stroke-width:0.26458332"
         id="path6659"
         inkscape:connector-curvature="0" />
      <path
         d="m -87.782763,84.093094 h -5.069458 v -7.694621 h 5.069458 v 0.909506 h -4.046265 v 2.108398 h 4.046265 v 0.909505 h -4.046265 v 2.857707 h 4.046265 z"
         style="stroke-width:0.26458332"
         id="path6661"
         inkscape:connector-curvature="0" />
      <path
         d="m -79.654061,80.253535 q 0,1.049032 -0.45992,1.901693 -0.454752,0.852661 -1.214396,1.322916 -0.5271,0.325562 -1.178223,0.470256 -0.645955,0.144694 -1.705322,0.144694 h -1.943034 v -7.694621 h 1.922364 q 1.126546,0 1.788004,0.165365 0.666626,0.160197 1.126546,0.444417 0.785482,0.490926 1.224732,1.307414 0.439249,0.816488 0.439249,1.937866 z m -1.069702,-0.0155 q 0,-0.904337 -0.315226,-1.524455 -0.315226,-0.620117 -0.940511,-0.976684 -0.454753,-0.258382 -0.966349,-0.356567 -0.511597,-0.103353 -1.224732,-0.103353 h -0.961181 v 5.937622 h 0.961181 q 0.738973,0 1.286743,-0.108521 0.552938,-0.10852 1.012859,-0.403076 0.573608,-0.366903 0.857828,-0.966349 0.289388,-0.599447 0.289388,-1.498617 z"
         style="stroke-width:0.26458332"
         id="path6663"
         inkscape:connector-curvature="0" />
      <path
         d="m -71.923268,84.093094 h -1.090372 l -0.754476,-2.144572 h -3.327962 l -0.754476,2.144572 h -1.038696 l 2.800862,-7.694621 h 1.364258 z m -2.160074,-3.023071 -1.348755,-3.777547 -1.353923,3.777547 z"
         style="stroke-width:0.26458332"
         id="path6665"
         inkscape:connector-curvature="0" />
      <path
         d="m -64.884939,84.093094 h -1.266072 l -3.648356,-6.883301 v 6.883301 h -0.956014 v -7.694621 h 1.586466 l 3.327962,6.283854 v -6.283854 h 0.956014 z"
         style="stroke-width:0.26458332"
         id="path6667"
         inkscape:connector-curvature="0" />
      <path
         d="m -54.54965,84.093094 h -4.16512 v -0.785482 h 1.601969 v -5.157308 h -1.601969 v -0.702799 q 0.325561,0 0.697632,-0.05168 0.37207,-0.05684 0.563273,-0.160196 0.237711,-0.129192 0.37207,-0.325562 0.139527,-0.201538 0.160197,-0.537435 h 0.800985 v 6.934977 h 1.570963 z"
         style="stroke-width:0.26458332"
         id="path6669"
         inkscape:connector-curvature="0" />
      <path
         d="m -47.314954,81.948522 q 0,0.997355 -0.780314,1.658813 -0.775147,0.661459 -1.953369,0.661459 -1.25057,0 -1.994711,-0.645956 -0.738973,-0.645955 -0.738973,-1.653645 0,-0.640788 0.372071,-1.157552 0.37207,-0.521932 1.049031,-0.826823 v -0.03101 q -0.620117,-0.330729 -0.91984,-0.72347 -0.294556,-0.392741 -0.294556,-0.981852 0,-0.868164 0.713135,-1.446941 0.713135,-0.578776 1.813843,-0.578776 1.152384,0 1.83968,0.552938 0.687297,0.552938 0.687297,1.405599 0,0.521932 -0.325562,1.028361 -0.325561,0.501262 -0.956014,0.785482 v 0.03101 q 0.723471,0.310058 1.105876,0.764811 0.382406,0.454753 0.382406,1.157552 z m -1.224732,-3.756877 q 0,-0.552937 -0.428914,-0.878499 -0.423747,-0.330729 -1.085205,-0.330729 -0.651123,0 -1.069702,0.310059 -0.413412,0.310058 -0.413412,0.837158 0,0.37207 0.206706,0.645955 0.211873,0.268718 0.63562,0.480591 0.191203,0.09302 0.54777,0.242879 0.361735,0.149862 0.7028,0.248047 0.511596,-0.341064 0.707967,-0.707967 0.19637,-0.366903 0.19637,-0.847494 z m 0.160197,3.855062 q 0,-0.475423 -0.211873,-0.759643 -0.206706,-0.289388 -0.816488,-0.578776 -0.242879,-0.113688 -0.532267,-0.211874 -0.289388,-0.09819 -0.769979,-0.273885 -0.465088,0.253215 -0.749308,0.687297 -0.279053,0.434082 -0.279053,0.981852 0,0.697632 0.480591,1.152384 0.480591,0.454753 1.219564,0.454753 0.754476,0 1.204061,-0.387573 0.454752,-0.387574 0.454752,-1.064535 z"
         style="stroke-width:0.26458332"
         id="path6671"
         inkscape:connector-curvature="0" />
      <path
         d="m -40.612518,77.550858 -3.482992,6.542236 h -1.105876 l 3.705201,-6.790283 h -4.382162 v -0.904338 h 5.265829 z"
         style="stroke-width:0.26458332"
         id="path6673"
         inkscape:connector-curvature="0" />
      <path
         d="m -33.956591,81.648799 q 0,0.537435 -0.196371,1.028361 -0.19637,0.490926 -0.537435,0.826823 -0.37207,0.361735 -0.888834,0.558105 -0.511597,0.191203 -1.188558,0.191203 -0.630453,0 -1.214396,-0.134359 -0.583944,-0.129191 -0.98702,-0.315226 v -1.090373 h 0.07235 q 0.423746,0.268718 0.992187,0.45992 0.568441,0.186036 1.116211,0.186036 0.366903,0 0.707967,-0.103353 0.346232,-0.103353 0.61495,-0.361735 0.227376,-0.222209 0.341064,-0.532268 0.118856,-0.310058 0.118856,-0.718302 0,-0.397908 -0.139526,-0.671794 -0.134359,-0.273885 -0.377238,-0.439249 -0.268718,-0.196371 -0.656291,-0.273885 -0.382406,-0.08268 -0.857829,-0.08268 -0.454752,0 -0.878499,0.06201 -0.418579,0.06201 -0.72347,0.124024 v -3.963583 h 4.630208 v 0.904338 h -3.632853 v 2.046387 q 0.222209,-0.02067 0.454753,-0.03101 0.232544,-0.01034 0.403076,-0.01034 0.625285,0 1.09554,0.108521 0.470256,0.103353 0.862996,0.37207 0.413412,0.284221 0.640788,0.733806 0.227377,0.449584 0.227377,1.126546 z"
         style="stroke-width:0.26458332"
         id="path6675"
         inkscape:connector-curvature="0" />
    </g>
    <text
       xml:space="preserve"
       style="font-style:normal;font-weight:normal;font-size:8.47339058px;line-height:1.25;font-family:sans-serif;letter-spacing:0px;word-spacing:0px;fill:#000000;fill-opacity:1;stroke:none;stroke-width:0.21183476"
       x="-153.05234"
       y="40.08234"
       id="text6859"
       transform="matrix(0.94772238,-0.2014246,0.18803704,1.0151968,0,0)"><tspan
         sodipodi:role="line"
         id="tspan6857"
         x="-153.05234"
         y="40.08234"
         style="stroke-width:0.21183476">Axel Ekenberg</tspan></text>
  </g>
</svg>
